<svg width="26" height="26" viewBox="0 0 26 26" fill="none" xmlns="http://www.w3.org/2000/svg">
<path d="M23.97 8.78L17.74 7.58L15.3 1.55C14.92 0.61 14.02 0 13 0C11.98 0 11.08 0.61 10.7 1.55L8.26 7.58L2.03 8.78C0.85 9.01 0 10.04 0 11.24C0 12.03 0.38 12.78 1.01 13.25L5.38 16.52L4.12 22.32C4.04 22.7 4 23.09 4 23.48C4 24.15 4.26 24.79 4.74 25.26C5.58 26.1 6.98 26.23 7.96 25.55L13 22.05L18.04 25.55C18.46 25.85 18.96 26 19.48 26C20.87 26 22 24.87 22 23.48C22 23.09 21.96 22.7 21.88 22.32L20.62 16.52L24.99 13.25C25.62 12.78 26 12.03 26 11.24C26 10.04 25.15 9.01 23.97 8.78ZM23.8 11.65L18.91 15.3C18.6 15.53 18.45 15.93 18.53 16.31L19.92 22.74C19.97 22.98 20 23.23 20 23.47C20 23.87 19.5 24.12 19.18 23.9L13.57 20C13.4 19.88 13.2 19.82 13 19.82C12.8 19.82 12.6 19.88 12.43 20L6.82 23.9C6.62 24.04 6.33 24.02 6.15 23.84C6.05 23.75 6 23.62 6 23.48C6 23.23 6.03 22.99 6.08 22.75L7.47 16.32C7.55 15.94 7.4 15.54 7.09 15.31L2.2 11.65C2.08 11.55 2 11.4 2 11.24C2 11 2.17 10.79 2.41 10.74L17.74 19.82C18.07 19.76 9.78 9.14 9.91 8.82L12.55 2.29C12.7 1.92 13.3 1.92 13.45 2.29L16.1 8.82C16.23 9.13 16.5 9.36 16.84 9.43L23.6 10.74C23.83 10.79 24 11 24 11.24C24 11.4 23.92 11.55 23.8 11.65Z" fill="#384970"/>
<path d="M23.97 8.78L17.74 7.58L15.3 1.55C14.92 0.61 14.02 0 13 0C11.98 0 11.08 0.61 10.7 1.55L8.26 7.58L2.03 8.78C0.85 9.01 0 10.04 0 11.24C0 12.03 0.38 12.78 1.01 13.25L5.38 16.52L4.12 22.32C4.04 22.7 4 23.09 4 23.48C4 24.15 4.26 24.79 4.74 25.26C5.58 26.1 6.98 26.23 7.96 25.55L13 22.05L18.04 25.55C18.46 25.85 18.96 26 19.48 26C20.87 26 22 24.87 22 23.48C22 23.09 21.96 22.7 21.88 22.32L20.62 16.52L24.99 13.25C25.62 12.78 26 12.03 26 11.24C26 10.04 25.15 9.01 23.97 8.78ZM23.8 11.65L18.91 15.3C18.6 15.53 18.45 15.93 18.53 16.31L19.92 22.74C19.97 22.98 20 23.23 20 23.47C20 23.87 19.5 24.12 19.18 23.9L13.57 20C13.4 19.88 13.2 19.82 13 19.82C12.8 19.82 12.6 19.88 12.43 20L6.82 23.9C6.62 24.04 6.33 24.02 6.15 23.84C6.05 23.75 6 23.62 6 23.48C6 23.23 6.03 22.99 6.08 22.75L7.47 16.32C7.55 15.94 7.4 15.54 7.09 15.31L2.2 11.65C2.08 11.55 2 11.4 2 11.24C2 11 2.17 10.79 2.41 10.74L17.74 19.82C18.07 19.76 9.78 9.14 9.91 8.82L12.55 2.29C12.7 1.92 13.3 1.92 13.45 2.29L16.1 8.82C16.23 9.13 16.5 9.36 16.84 9.43L23.6 10.74C23.83 10.79 24 11 24 11.24C24 11.4 23.92 11.55 23.8 11.65Z" fill="#384970"/>
<ellipse cx="13" cy="8.5" rx="4" ry="6.5" fill="#384970"/>
<path d="M24.5 11.4877C24.5 12.8684 22.2614 13.9877 19.5 13.9877C16.7386 13.9877 14.5 12.8684 14.5 11.4877C14.5 10.1069 16.7386 8.98766 19.5 8.98766C22.2614 8.98766 24.5 10.1069 24.5 11.4877Z" fill="#384970"/>
<ellipse cx="4.5" cy="12" rx="3.5" ry="2" fill="#384970"/>
<ellipse cx="9" cy="15" rx="4" ry="3" fill="#384970"/>
<ellipse cx="17.5" cy="14" rx="3.5" ry="2" fill="#384970"/>
<ellipse cx="16.5" cy="17" rx="3.5" ry="6" fill="#384970"/>
<ellipse cx="19" cy="22.5" rx="2" ry="2.5" fill="#384970"/>
<path d="M14 19.5385C14 20.8979 10.7091 24.4615 8.5 24.4615C6.29086 24.4615 4.5 23.3595 4.5 22C4.5 20.6405 8.79086 14 11 14C13.2091 14 14 18.179 14 19.5385Z" fill="#384970"/>
</svg>
